<?xml version="1.0" encoding="UTF-8"?>
<svg id="Layer_1" data-name="Layer 1" xmlns="http://www.w3.org/2000/svg" viewBox="0 0 1000 592.51">
  <defs>
    <style>
      .cls-1 {
        fill: #fff;
      }
    </style>
  </defs>
  <path class="cls-1" d="m58.26,357.84c-31.92,0-57.9,25.83-57.9,57.57s25.97,57.57,57.9,57.57,57.9-25.83,57.9-57.57-25.97-57.57-57.9-57.57Zm0,100.32c-23.71,0-42.99-19.18-42.99-42.75s19.29-42.75,42.99-42.75,42.99,19.18,42.99,42.75-19.29,42.75-42.99,42.75Z"/>
  <path class="cls-1" d="m282.41,364.78v-2.85h-14.9v71.42c0,13.67-11.19,24.79-24.94,24.79s-24.94-11.12-24.94-24.79v-71.42h-14.9v71.42c0,13.67-11.19,24.79-24.94,24.79s-24.93-11.12-24.93-24.79v-71.42h-14.9v71.42c0,21.84,17.87,39.61,39.84,39.61,13.35,0,25.16-6.58,32.39-16.63,7.23,10.05,19.04,16.63,32.39,16.63,21.97,0,39.84-17.77,39.84-39.61v-68.57Z"/>
  <path class="cls-1" d="m317.39,468.42h2.87v-53.47c0-23.57,19.29-42.75,42.99-42.75s43,19.18,43,42.75v53.47h14.9v-53.47c0-31.74-25.98-57.57-57.9-57.57s-57.9,25.83-57.9,57.57v53.47h12.04Z"/>
  <path class="cls-1" d="m671.68,472.99c31.93,0,57.9-25.83,57.9-57.57s-25.97-57.57-57.9-57.57-57.9,25.83-57.9,57.57,25.97,57.57,57.9,57.57Zm0-100.33c23.71,0,43,19.18,43,42.75s-19.29,42.75-43,42.75-43-19.18-43-42.75,19.29-42.75,43-42.75Z"/>
  <path class="cls-1" d="m851.68,361.93h-2.87v53.48c0,23.57-19.29,42.75-43,42.75s-42.99-19.18-42.99-42.75v-53.48h-14.9v53.48c0,31.74,25.97,57.57,57.9,57.57s57.9-25.82,57.9-57.57v-53.48h-12.04Z"/>
  <path class="cls-1" d="m996.77,270.72h-12.04v87.04l-43.47.05c-31.92,0-57.9,25.83-57.9,57.57s25.97,57.57,57.9,57.57h18c17.96,0,39.97-17.61,40.38-39.49v-159.89s0-2.85,0-2.85h-2.87Zm-12.04,162.47c-.24,12.84-14.55,24.94-25.47,24.94h-18c-23.71,0-42.99-19.18-42.99-42.75s19.29-42.75,43-42.75l43.5-.05c.07,13.79.2,47.38-.04,60.61Z"/>
  <path class="cls-1" d="m560.48,311.09v122.26c0,21.84,17.87,39.61,39.84,39.61h2.87v-14.82h-2.87c-13.75,0-24.93-11.12-24.93-24.79v-113.42c-5.19-2.61-10.17-5.56-14.9-8.85Z"/>
  <path class="cls-1" d="m482.73,330.12c-4.94-1.89-9.53-4.49-13.64-7.67-16.59,15.94-26.93,38.26-26.93,62.95,0,48.3,39.52,87.59,88.09,87.59h2.87v-14.82h-2.87c-40.35,0-73.19-32.64-73.19-72.77,0-22.1,9.97-41.92,25.67-55.28Z"/>
  <path class="cls-1" d="m852.9,304.6c8.12,9.32,20.08,15.24,33.42,15.24,24.4,0,44.26-19.74,44.26-44s-19.85-44.01-44.26-44.01c-2.42,0-4.78.25-7.09.62.13,1.99.21,3.99.21,6.01,0,25.59-10.11,48.87-26.53,66.14Z"/>
  <path class="cls-1" d="m454.49,256c7.26-13.8,20.43-24.06,36.15-27.41,1.49-.32,3-.57,4.53-.76,1.51-.19,3.04-.32,4.58-.38.7-.03,1.4-.05,2.11-.05,2.48,0,4.92.18,7.31.51-.75-5.42-1.17-10.95-1.17-16.57,0-27.01,8.91-51.97,23.94-72.17-3.41-4.22-6.44-8.74-9.05-13.53-.73-1.35-1.42-2.72-2.09-4.11-.66-1.39-1.29-2.79-1.88-4.22-2.35-5.65-4.12-11.6-5.26-17.76-2.04-.14-4.09-.24-6.17-.24-15.18,0-29.48,3.86-41.95,10.64-1.38.75-2.73,1.54-4.06,2.36-1.31.81-2.6,1.66-3.87,2.53-14.23,9.81-25.39,23.7-31.81,39.95-.56,1.43-1.09,2.88-1.58,4.34-.49,1.46-.94,2.93-1.35,4.43-2.02,7.33-3.12,15.04-3.12,23,0,28.31,13.64,53.5,34.72,69.45Z"/>
  <path class="cls-1" d="m752.47,206.53c.06,1.6.12,3.2.12,4.81,0,.47-.03.94-.04,1.4-.02,2.05-.1,4.09-.22,6.11-1.87,30.26-14.9,57.54-35.05,77.85,16.07,17.78,39.36,28.99,65.25,28.99,22.35,0,42.76-8.36,58.26-22.09,1.17-1.04,2.33-2.11,3.44-3.21,1.13-1.11,2.23-2.24,3.29-3.42,14.12-15.49,22.73-36.03,22.73-58.52,0-1.19-.04-2.37-.09-3.55-.06-1.59-.17-3.18-.32-4.75-.15-1.57-.33-3.12-.57-4.67-6.16-40.96-41.06-72.68-83.57-74.2-1.06-.04-2.12-.08-3.19-.08-.47,0-.93.03-1.4.04-1.54.02-3.07.09-4.59.19-12.51.84-24.31,4.3-34.84,9.83,6.34,13.9,10.13,29.18,10.77,45.25Z"/>
  <path class="cls-1" d="m678.47,109.6c-13.88-6.52-29.3-10.3-45.56-10.67-.87-.02-1.74-.06-2.62-.06-1.09,0-2.16.05-3.24.08-1.95.05-3.88.16-5.8.31-17.83,1.41-34.51,6.92-49.07,15.62-1.35.81-2.69,1.66-4.01,2.52-1.33.87-2.64,1.78-3.93,2.7-7.54,5.42-14.39,11.72-20.39,18.77-1,1.18-1.97,2.39-2.93,3.61-.94,1.21-1.86,2.43-2.75,3.67-13.21,18.41-21.02,40.9-21.02,65.19,0,6.41.57,12.69,1.61,18.81.3,1.76.64,3.51,1.02,5.24.42,1.89.88,3.76,1.39,5.62,2.82,10.26,7.05,19.94,12.51,28.81.82,1.35,1.68,2.67,2.56,3.97.88,1.31,1.8,2.6,2.74,3.87,2.11,2.87,4.36,5.63,6.73,8.29,1.29,1.45,2.62,2.86,3.98,4.24,1.25,1.26,2.53,2.5,3.84,3.71,20.18,18.55,47.14,29.92,76.73,29.92s54.56-10.56,74.47-27.92c1.15-1,2.27-2.02,3.38-3.07,1.13-1.07,2.24-2.16,3.33-3.27,16.56-16.99,27.78-39.13,30.97-63.74.25-1.91.45-3.82.6-5.75.15-1.93.25-3.87.3-5.82.02-.96.07-1.92.07-2.89,0-16.14-3.46-31.48-9.64-45.37-.63-1.42-1.28-2.82-1.97-4.21-.67-1.36-1.36-2.71-2.09-4.04-10-18.26-24.95-33.45-43.03-43.83-1.34-.77-2.69-1.51-4.06-2.23-1.37-.71-2.75-1.41-4.15-2.07Z"/>
  <path class="cls-1" d="m543.07,296.45c-4.91-4.97-9.39-10.36-13.39-16.11-.92-1.33-1.82-2.69-2.69-4.05-.87-1.36-1.71-2.74-2.53-4.14-6.22-10.66-10.85-22.32-13.59-34.7-2.91-.6-5.92-.92-9.01-.92-.33,0-.64.04-.97.05-1.55.03-3.07.15-4.57.33-1.54.19-3.05.47-4.54.81-13.04,3.04-23.85,11.81-29.62,23.49-.68,1.38-1.29,2.8-1.83,4.25-.53,1.45-.99,2.93-1.37,4.44-.86,3.41-1.36,6.96-1.36,10.63,0,8.46,2.45,16.34,6.63,23.05.82,1.32,1.7,2.59,2.64,3.8.93,1.19,1.91,2.34,2.96,3.43,8.07,8.43,19.42,13.72,32.02,13.72,18.75,0,34.77-11.67,41.21-28.08Z"/>
  <path class="cls-1" d="m507.51,90.19c1.66,0,3.31.04,4.95.12-.18-2.32-.3-4.66-.3-7.04,0-12.87,2.77-25.1,7.71-36.17-6.66-4.4-14.63-6.98-23.21-6.98-23.18,0-42.04,18.75-42.04,41.8,0,7.49,2.02,14.52,5.51,20.61,14.02-7.85,30.17-12.35,47.37-12.35Z"/>
  <path class="cls-1" d="m411.17,323.41c16.98,0,32.75-5.25,45.77-14.18-5.37-8.28-8.5-18.13-8.5-28.7,0-5.52.85-10.85,2.43-15.86-24.37-17.52-40.27-46-40.27-78.12,0-8.21,1.04-16.18,2.99-23.79-.81-.02-1.61-.06-2.43-.06-44.56,0-80.81,36.05-80.81,80.36s36.25,80.35,80.81,80.35Z"/>
  <path class="cls-1" d="m522.34,95.95c.26,1.62.58,3.22.93,4.8.82,3.64,1.87,7.2,3.17,10.64.58,1.53,1.2,3.02,1.87,4.51.65,1.45,1.35,2.88,2.08,4.29,2.15,4.12,4.64,8.03,7.45,11.69,5.64-6.48,11.94-12.38,18.82-17.55,1.3-.98,2.62-1.92,3.96-2.84,1.33-.92,2.68-1.81,4.05-2.68,18.56-11.79,40.5-18.73,64.03-19.03.53,0,1.06-.04,1.59-.04,1.53,0,3.05.06,4.56.11,2.09.08,4.17.21,6.24.39,14.13,1.24,27.56,4.87,39.91,10.49,1.26-5.62,1.94-11.46,1.94-17.45,0-4.46-.38-8.82-1.09-13.09-.25-1.51-.55-3-.88-4.48-.34-1.49-.71-2.97-1.13-4.42-9.64-33.65-40.82-58.36-77.71-58.36-30.44,0-56.99,16.82-70.77,41.61-.77,1.38-1.5,2.78-2.19,4.21-.71,1.49-1.37,3-1.99,4.54-3.77,9.28-5.86,19.39-5.86,29.99,0,2.69.14,5.34.4,7.96.16,1.58.37,3.15.61,4.71Z"/>
  <path class="cls-1" d="m737.63,153.11c11.69-6.11,24.77-9.9,38.64-10.79-3.59-41.04-38.3-73.35-80.48-73.35-1.61,0-3.21.06-4.8.15.74,4.61,1.14,9.33,1.14,14.15,0,7.47-.94,14.72-2.68,21.67,20.28,11.19,37.05,27.93,48.19,48.16Z"/>
  <path class="cls-1" d="m161.89,512.51l-22.84,60.74h12.94l4.65-13.03h23.6l4.57,13.03h13.79l-22.67-60.74h-14.04Zm-1.61,37.47l8.29-23.43,8.12,23.43h-16.41Z"/>
  <polygon class="cls-1" points="269.92 512.51 255.2 512.51 233.12 539.25 233.12 512.51 220.26 512.51 220.26 573.25 233.12 573.25 233.12 545.51 254.77 573.25 270.59 573.25 245.81 541.61 269.92 512.51"/>
  <rect class="cls-1" x="275.08" y="528.08" width="11.76" height="45.17"/>
  <path class="cls-1" d="m280.83,510.48c-4.57,0-7.78,2.96-7.78,7.11s3.21,6.94,7.78,6.94,7.87-2.96,7.87-6.94-3.21-7.11-7.87-7.11Z"/>
  <path class="cls-1" d="m311.2,514.71h-11.67v13.37h-9.14v10.07h9.14v20.47c0,10.15,5.84,15.48,15.14,15.48,3.47,0,6.18-.59,9.05-2.03v-10.24c-1.69.93-3.72,1.44-5.92,1.44-4.23,0-6.6-2.12-6.6-7.36v-17.76h12.94v-10.07h-12.94v-13.37Z"/>
  <path class="cls-1" d="m348.08,527.23c-13.03,0-22.42,9.81-22.42,23.26,0,14.13,9.05,23.52,22.59,23.52,11,0,18.86-5.84,21.4-16.07h-11.67c-1.35,4.48-4.82,7.02-9.98,7.02-6.01,0-9.56-4.06-10.32-11.42h32.06c2.11-14.72-7.36-26.31-21.66-26.31Zm-10.24,18.86c1.02-6.68,4.48-10.24,9.98-10.24s9.14,3.98,9.47,10.24h-19.46Z"/>
  <polygon class="cls-1" points="417.2 556.67 409.16 528.08 397.57 528.08 389.28 556.67 381.58 528.08 370.16 528.08 383.02 573.25 394.78 573.25 403.24 543.9 411.78 573.25 423.46 573.25 436.4 528.08 424.81 528.08 417.2 556.67"/>
  <path class="cls-1" d="m459.41,527.23c-13.11,0-22.92,10.24-22.92,23.43s9.81,23.43,22.92,23.43,22.92-10.32,22.92-23.43-9.81-23.43-22.92-23.43Zm0,36.46c-5.84,0-10.83-4.65-10.83-13.03s4.99-12.94,10.83-12.94,10.83,4.57,10.83,12.94-4.99,13.03-10.83,13.03Z"/>
  <path class="cls-1" d="m499,536.79v-8.71h-10.83v45.17h11.76v-21.91c0-9.98,6.68-12.35,16.66-11.59v-12.18c-7.27,0-14.3,3.47-17.6,9.22Z"/>
  <polygon class="cls-1" points="562.78 528.08 549.25 528.08 532.75 547.2 532.75 512.51 520.99 512.51 520.99 573.25 532.75 573.25 532.75 552.27 550.01 573.25 564.98 573.25 544.09 549.73 562.78 528.08"/>
  <path class="cls-1" d="m591.04,546.52l-8.71-1.61c-4.06-.76-5.92-1.86-5.92-4.57,0-2.88,2.88-4.48,7.19-4.48,4.99,0,8.29,2.71,8.71,7.11h11.25c-.85-9.73-8.63-15.73-19.96-15.73s-18.44,5.84-18.44,14.21c0,7.02,4.91,11.5,13.03,12.94l8.12,1.52c4.31.85,6.18,2.03,6.18,4.91,0,3.21-3.47,4.65-8.04,4.65-5.84,0-9.81-2.96-9.9-7.61h-11.25c.93,10.07,8.12,16.24,20.98,16.24s20.05-5.84,20.05-15.31c0-6.51-4.48-10.57-13.28-12.27Z"/>
  <path class="cls-1" d="m654.74,522.75c8.63,0,15.4,6.01,16.83,14.72h13.62c-2.11-15.57-14.63-26.22-30.62-26.22-17.09,0-30.45,13.79-30.45,31.55s13.37,31.72,30.45,31.72c15.99,0,28.51-10.57,30.62-26.31h-13.62c-1.52,8.71-8.21,14.8-16.83,14.8-10.4,0-17.43-8.29-17.43-20.22s7.02-20.05,17.43-20.05Z"/>
  <path class="cls-1" d="m711.42,527.23c-13.11,0-22.92,10.24-22.92,23.43s9.81,23.43,22.92,23.43,22.92-10.32,22.92-23.43-9.81-23.43-22.92-23.43Zm0,36.46c-5.84,0-10.83-4.65-10.83-13.03s4.99-12.94,10.83-12.94,10.83,4.57,10.83,12.94-4.99,13.03-10.83,13.03Z"/>
  <path class="cls-1" d="m792.63,527.23c-6.77,0-11.34,3.05-14.89,8.04-2.28-5.16-7.02-8.04-13.2-8.04s-10.24,2.71-13.53,7.27v-6.43h-10.83v45.17h11.76v-25.21c0-6.77,3.72-10.4,8.46-10.4,5.16,0,7.87,3.81,7.87,10.15v25.46h11.67v-25.21c0-6.77,3.81-10.4,8.46-10.4,5.16,0,7.87,3.81,7.87,10.15v25.46h11.67v-29.18c0-10.83-6.18-16.83-15.31-16.83Z"/>
  <path class="cls-1" d="m841.35,527.23c-5.75,0-10.74,2.62-14.21,7.44v-6.6h-10.83v61.5h11.76v-22.16c3.38,4.4,7.95,6.68,13.28,6.68,12.18,0,20.05-10.07,20.05-23.43s-7.87-23.43-20.05-23.43Zm-2.62,36.37c-5.75,0-10.57-4.4-10.57-12.94s4.82-13.03,10.57-13.03,10.57,4.57,10.57,13.03-4.82,12.94-10.57,12.94Z"/>
  <path class="cls-1" d="m884.92,527.23c-10.91,0-18.44,6.77-19.12,17.17h10.57c.42-5.08,3.47-8.04,8.54-8.04s7.78,2.96,7.78,8.04v2.71c-2.79-.34-4.99-.51-7.53-.51-13.2,0-20.3,4.74-20.3,13.53s6.26,13.96,15.65,13.96c6.18,0,10.66-2.2,13.62-6.43v5.58h9.56v-28.42c0-11.08-6.94-17.59-18.78-17.59Zm7.78,30.2c0,5.24-3.64,8.54-9.64,8.54-4.4,0-7.11-2.37-7.11-6.18,0-4.06,3.3-6.18,9.98-6.18,2.03,0,3.98.17,6.77.59v3.21Z"/>
  <path class="cls-1" d="m936.86,527.23c-5.92,0-10.57,2.79-13.87,7.27v-6.43h-10.83v45.17h11.76v-24.62c0-7.28,3.98-11,8.63-11,5.33,0,7.95,3.72,7.95,10.4v25.21h11.67v-29.18c0-10.91-6.26-16.83-15.31-16.83Z"/>
  <polygon class="cls-1" points="977.55 559.04 966.22 528.08 953.53 528.08 971.29 572.74 964.86 589.58 977.64 589.58 999.63 528.08 987.87 528.08 977.55 559.04"/>
</svg>